/* XPM */
static char * HitlerMage_dead_xpm[] = {
"128 128 61 1",
" 	c #C12D8D",
".	c #851F61",
"+	c #9B0001",
"@	c #B30001",
"#	c #B90000",
"$	c #CA0000",
"%	c #EF0001",
"&	c #929201",
"*	c #9F9F01",
"=	c #830001",
"-	c #430001",
";	c #6B6B01",
">	c #878701",
",	c #636301",
"'	c #350001",
")	c #2B230F",
"!	c #434301",
"~	c #AA0000",
"{	c #7C7C01",
"]	c #5C5C01",
"^	c #535301",
"/	c #3D3D01",
"(	c #323201",
"_	c #83532F",
":	c #373737",
"<	c #2F2F2F",
"[	c #232323",
"}	c #1F1F1F",
"|	c #282828",
"1	c #0F0001",
"2	c #6F0001",
"3	c #252525",
"4	c #1D1D1D",
"5	c #151515",
"6	c #0D0D0D",
"7	c #1B1B1B",
"8	c #000000",
"9	c #8A0000",
"0	c #A70001",
"a	c #790000",
"b	c #570001",
"c	c #630001",
"d	c #770001",
"e	c #840000",
"f	c #950000",
"g	c #4B0001",
"h	c #191919",
"i	c #121212",
"j	c #272727",
"k	c #292901",
"l	c #1F1F01",
"m	c #330001",
"n	c #2B0001",
"o	c #220001",
"p	c #3C0001",
"q	c #676767",
"r	c #5B5B5B",
"s	c #737373",
"t	c #434343",
"u	c #4B4B4B",
"v	c #575757",
"                                                                                                                               .",
"                                                                                                                               .",
"                                                                                                                               .",
"                                                                                                                               .",
"                                                                                                                               .",
"                                                                                                                               .",
"                                                                                                                               .",
"                                                                                                                               .",
"                                                                                                                               .",
"                                                                                                                               .",
"                                                                                                                               .",
"                                                                                                                               .",
"                                                                                                                               .",
"                                                                                                                               .",
"                                                                                                                               .",
"                                                                                                                               .",
"                                                                                                                               .",
"                                                                                                                               .",
"                                                                                                                               .",
"                                                                                                                               .",
"                                                                                                                               .",
"                                                                                                                               .",
"                                                                                                                               .",
"                                                                                                                               .",
"                                                                                                                               .",
"                                                                                                                               .",
"                                                                                                                               .",
"                                                                                                                               .",
"                                                                                                                               .",
"                                                                                                                               .",
"                                                                                                                               .",
"                                                                                                                               .",
"                                                                                                                               .",
"                                                                                                                               .",
"                                                                                                                               .",
"                                                                                                                               .",
"                                                                                                                               .",
"                                                                                                                               .",
"                                                                                                                               .",
"                                                                                                                               .",
"                                                                                                                               .",
"                                                                                                                               .",
"                                                                                                                               .",
"                                                                                                                               .",
"                                                                                                                               .",
"                                                                                                                               .",
"                                                                                                                               .",
"                                                                                                                               .",
"                                                                                                                               .",
"                                                                                                                               .",
"                                                                                                                               .",
"                                                                                                                               .",
"                                                                                                                               .",
"                                                                                                                               .",
"                                                                                                                               .",
"                                                                                                                               .",
"                                                                                                                               .",
"                                                                                                                               .",
"                                                                                                                               .",
"                                                                                                                               .",
"                                                                                                                               .",
"                                                                                                                               .",
"                                                                                                                               .",
"                                                                                                                               .",
"                                                                                                                               .",
"                                                                                                                               .",
"                                                                                                                               .",
"                                                                                                                               .",
"                                                                                                                               .",
"                                                                                                                               .",
"                                                                                                                               .",
"                                                                                                                               .",
"                                                                                                                               .",
"                                                                                                                               .",
"                                                                                                                               .",
"                                                                                                                               .",
"                                                                                                                               .",
"                                                                                                                               .",
"                                                                                                                               .",
"                                                                                                                               .",
"                                                                                                                               .",
"                                                                                                                               .",
"                                                                                                                               .",
"                                                                                                                               .",
"                                                                                                                               .",
"                                                                                                                               .",
"                                                                                                                               .",
"                                                                                                                               .",
"                                                                                                                               .",
"                                                                                                                               .",
"                                                                                                                               .",
"                                                                                                                               .",
"                                                                                                                               .",
"                                                                                                                               .",
"                                                                                                                               .",
"                                                                                                                               .",
"                                                                                                                               .",
"                                                         ++@#$%%%$#&******&==+-----                                            .",
"                                                        ==+@@#$%$;>>>&**&>>,;-')!!)-                                           .",
"                           ~@@@++{{;;]]^!/(            __>&*&>>>>>;;;;;;;;;;],]!))!--                                          .",
"                         +++~~~&>{;]]^^^^!(::        !^^^;>&>;;;;;;;;;;;;;;;;],]!)!--                                          .",
"                        +++>**&>;^^<:::::::::::[[   !!!!^==__!!!!:::::::::<[}!!!]!)--                                          .",
"                       +=>***&>;^<:::::::::::<<<|}[}}}}}}}}))(()[<<<<<<<<<|[}}}!!))11                                          .",
"                       =2>>>>{{^^<<<<<<<<<<<<|||3[}}}}}}}}}44445)66554}[||[}}}}}}}75111                                        .",
"                      ==;{{>{;;^|<<<<<<<<<<||3333[[}}}}}}}4555566886654}[[}}}}}}}}}75188                                       .",
"                      ==,;;;;;]^[||||||||[[90000000009a222b6666--bbccddddef00fed2cb--1888                                      .",
"                      =2^^,;;]^!(}[[[[[[}ddd999999999aa2bbbg----bbbbccdddeeffeedd2cbb--888                                     .",
"                      =-!!!!!!!!!}}}}}}dddd2cbbbbbbbbggggggg----b88888888888888--ccccbb---8                                    .",
"                       '-!!!!!!!!5hhhhddd22cbgggggggggggggg-----88888888888888888--cccb--888                                   .",
"                        '-((((((((5552d22ccbb--16i}[[<<<<<<<<<<j}-b2ef0fe2b88888888888888888                                   .",
"                         '-kkkkkkkk52222ccb--186i5h}}jjjjjjjjjjjj}222ee2222b88888888888888888                                  .",
"                          ''llllllll222ccbb-886i5h}}}}}}}}}}}}}}}}-bbbbbbbb-888888888888888888                                 .",
"                           -88888888-ccbb--88886iii555555555555555m--------m88888888888888888888                               .",
"                         8888-------888888888888666iiiiiiiiiiiiiiinmmmmmmmmn888888om---p'88888888                              .",
"                        8888-bbbbbb-n888888888888886666666666666611nnnnnnnn888888omm-bc-p'88888888                             .",
"                       88888bcddcccb-mno888888888888888888888888888888888888888888onm-bc-pp88888888qrqqsssq                    .",
"                      88888-bddddccb--mno888888888888888888888888888888888888888888onm-b-p'888888888tttuvrqsq                  .",
"                      88888-bccccbbb-mo888888888888888888888888888888888888888888888on--p'8888888888<<<<:turqs                 .",
"                      88888--bbbbbb-mn88888888888888888888888888888888888888888888888omp'88888888888[[[[[[<turs                .",
"                      88888888888--mno88888888888888888888888888888888888888888888888888888888888888}}}}}}[<:tvq               .",
"                       888888888888no88888888888888888888888888888888888888888888888888888888888888}}}}}}}[<<:urs              .",
"                        8888888888888888888885i88888888888888888888888888888888888888888888888888[}}}}}}}}[[<:urs              .",
"                         88888888888888888888i6888888888888888888888888888888888888888888888888[[}}}}}}}}}[<<:urs              .",
"                             88888888888888888888888888888888888888888888888888888888888888[[[[[[}}}}}[[[[<<:tuq               .",
"                               8888888888888888888888888888888888888888888888888888888888<[[[[[[[[[[<<<<<<:tuvrs               .",
"                                     88888888888888888888888888888888888888888888:::::::<<[[[[[[<<::::ttttuurqs                .",
"                                       8888888888888888888888888888888888888888t:::::::::<<<<<::ttuuvvvvvrrqsq                 .",
"................................................................................................................................"};
