/* XPM */
static char *_4446_d91a9e58cd282574a35211b35137a953c897918e9d4c78f45261d001395228cf[] = {
/* columns rows colors chars-per-pixel */
"64 64 54 1 ",
"  c black",
". c #00001C",
"X c #00002C",
"o c #000034",
"O c #202020",
"+ c #2C2C2C",
"@ c gray22",
"# c #5C4020",
"$ c #6C4824",
"% c #000040",
"& c #00004C",
"* c #000058",
"= c #000064",
"- c #000070",
"; c #00007C",
": c #484848",
"> c gray33",
", c #646464",
"< c gray44",
"1 c #80502C",
"2 c #885830",
"3 c #905C34",
"4 c #9C6038",
"5 c #A0643C",
"6 c #B47044",
"7 c #C87C4C",
"8 c #B4AC00",
"9 c #CCC400",
"0 c #FCF400",
"q c #D08050",
"w c #DC8854",
"e c #E88C58",
"r c #F0945C",
"t c #FC9C60",
"y c #FCA470",
"u c #000088",
"i c #000098",
"p c #0000A4",
"a c #0000B0",
"s c #0000BC",
"d c #0000C8",
"f c #0000D4",
"g c #0000E0",
"h c #0000EC",
"j c #0000FC",
"k c #980088",
"l c gray66",
"z c #FCB080",
"x c #FCB890",
"c c #FCBC9C",
"v c #FCC4A4",
"b c #FCCCB0",
"n c #C0C0C0",
"m c #FCD8C4",
/* pixels */
"kkkkkkkkkkkkkkkkkkkkkkkkkkkkkkkkkkkkkkkkkkkkkkkkkkkkkkkkkkkkkkkk",
"kkkkkkkkkkkkkkkkkkkkkkkkkkkkkkkkkkkkkkkkkkkkkkkkkkkkkkkkkkkkkkkk",
"kkkkkkkkkkkkkkkkkkkkkkkkkkkkkkkkkkkkkkkkkkkkkkkkkkkkkkkkkkkkkkkk",
"kkkkkkkkkkkkkkkkkkkkkkkkkkkkkkkkkkkkkkkkkkkkkkkkkkkkkkkkkkkkkkkk",
"kkkkkkkkkkkkkkkkkkkkkkkkkkkkkkkkkkkkkkkkkkkkkkkkkkkkkkkkkkkkkkkk",
"kkkkkkkkkkkkkkkkkkkkkkkkkkkkkkkkkkkkkkkkkkkkkkkkkkkkkkkkkkkkkkkk",
"kkkkkkkkkkkkkkkkkkkkkkkkkkkkkkkkkkkkkkkkkkkkkkkkkkkkkkkkkkkkkkkk",
"kkkkkkkkkkkkkkkkkkkkkkkkkkkkkkkkkkkkkkkkkkkkkkkkkkkkkkkkkkkkkkkk",
"kkkkkkkkkkkkkkkkkkkkkkkkkkkkkkkkkddkkkkkkkkkkkkkkkkkkkkkkkkkkkkk",
"kkkkkkkkkkkkkkkkkkkkkkkkkkkkkkipppj kkkkkkkkkkkkkkkkkkkkkkkkkkkk",
"kkkkkkkkkkkkkkkkkkkkkkkkkkkkpppppj;  kkkkkkkkkkkkkkkkkkkkkkkkkkk",
"kkkkkkkkkkkkkkkkkkkkkkkkkkkigpppg;    kkkkkkkkkkkkkkkkkkkkkkkkkk",
"kkkkkkkkkkkkkkkkkkkkkkkkkkki-ggg;     kkkkkkkkkkkkkkkkkkkkkkkkkk",
"kkkkkkkkkkkkkkkkkkkkkkkkkkki----     kkkkkkkkkkkkkkkkkkkkkkkkkkk",
"kkkkkkkkkkkkkkkkkkkkkkkkkkk60---    92kkkkkkkkkkkkkkkkkkkkkkkkkk",
"kkkkkkkkkkkkkkkkkkkkkkkkkkk107s7r4s78$kkkkkkkkkkkkkkkkkkkkkkkkkk",
"kkkkkkkkkkkkkkkkkkkkkkkkkkk6txvzq2cxq2kkkkkkkkkkkkkkkkkkkkkkkkkk",
"kkkkkkkkkkkkkkkkkkkkkkkkkkkktxzyyyyyqkkkkkkkkkkkkkkkkkkkkkkkkkkk",
"kkkkkkkkkkkkkkkkkkkkkkkkkkkktxrbmmxeqkkkkkkkkkkkkkkkkkkkkkkkkkkk",
"kkkkkkkkkkkkkkkkkkkkkkkkkkk txryyyre1 kkkkkkkkkkkkkkkkkkkkkkkkkk",
"kkkkkkkkkkkkkkkkkkkkkkkkkkk +yyy7yew+ &kkkkkkkkkkkkkkkkkkkkkkkkk",
"kkkkkkkkkkkkkkkkkkkkkkkk+++ @6655331+@  &&kkkkkkkkkkkkkkkkkkkkkk",
"kkkkkkkkkkkkkkkkkkkkkkii-++ n,  1  l,O&-u=&kkkkkkkkkkkkkkkkkkkkk",
"kkkkkkkkkkkkkkkkkkkkkiaas+++ O-% %- O;uu--=&kkkkkkkkkkkkkkkkkkkk",
"kkkkkkkkkkkkkkkkkkkkiasaa-+++iii%-iiiuuuuuu-&kkkkkkkkkkkkkkkkkkk",
"kkkkkkkkkkkkkkkkkkkkiafaii++ Xuuu*uuuu;-uiiu=&kkkkkkkkkkkkkkkkkk",
"kkkkkkkkkkkkkkkkkkkisfaai-X  X---*------ppiiu&kkkkkkkkkkkkkkkkkk",
"kkkkkkkkkkkkkkkkkkksffai;*X   X-=%***;;-ppppi-&kkkkkkkkkkkkkkkkk",
"kkkkkkkkkkkkkkkkkkisjjg--%>>:  o%%%%***-upppuu&kkkkkkkkkkkkkkkkk",
"kkkkkkkkkkkkkkkkkkshhaa-->,<,<,:XXooo%o%*uuu;-&kkkkkkkkkkkkkkkkk",
"kkkkkkkkkkkkkkkkkkshhf<<u,::<<<<<::XXXXXuupp&&&kkkkkkkkkkkkkkkkk",
"kkkkkkkkkkkkkkkkkksff<<iq:@@@:>,<<<,:XXupppi-&&kkkkkkkkkkkkkkkkk",
"kkkkkkkkkkkkkkkkkksfj<fqq551:@@@@:>,<<,::<i;-&&kkkkkkkkkkkkkkkkk",
"kkkkkkkkkkkkkkkkkkkff<pqq5##%,>@%@@@@:,<<O;&&&kkkkkkkkkkkkkkkkkk",
"kkkkkkkkkkkkkkkkkkkkf;;qq55# ,,@  q51@@::O&&&kkkkkkkkkkkkkkkkkkk",
"kkkkkkkkkkkkkkkkkkkkkkk1111#X,,@XXqq551&&&&&kkkkkkkkkkkkkkkkkkkk",
"kkkkkkkkkkkkkkkkkkkkkkkk;*%%%>,@X%qq551%..kkkkkkkkkkkkkkkkkkkkkk",
"kkkkkkkkkkkkkkkkkkkkkkkk;*%%%%XX%&1111#%%.kkkkkkkkkkkkkkkkkkkkkk",
"kkkkkkkkkkkkkkkkkkkkkkkk;u--*%X.%=---p==%.kkkkkkkkkkkkkkkkkkkkkk",
"kkkkkkkkkkkkkkkkkkkkkkkk;u;;*%X.&---pp;;%.kkkkkkkkkkkkkkkkkkkkkk",
"kkkkkkkkkkkkkkkkkkkkkkkk=u;;*%X.=&=;;;=&X.kkkkkkkkkkkkkkkkkkkkkk",
"kkkkkkkkkkkkkkkkkkkkkkkk===*%X..&=iiii-=XXkkkkkkkkkkkkkkkkkkkkkk",
"kkkkkkkkkkkkkkkkkkkkkkkk;u***%X.%iaaaau-&Xkkkkkkkkkkkkkkkkkkkkkk",
"kkkkkkkkkkkkkkkkkkkkkkkk;u***%X.%iaaaau-&Xkkkkkkkkkkkkkkkkkkkkkk",
"kkkkkkkkkkkkkkkkkkkkkkkk-;**%%X.%iaaaai;&Xkkkkkkkkkkkkkkkkkkkkkk",
"kkkkkkkkkkkkkkkkkkkkkkkkk%==%%X.&iaaaai;Xkkkkkkkkkkkkkkkkkkkkkkk",
"kkkkkkkkkkkkkkkkkkkkkkkk%=%%%%X..ippppp;Xkkkkkkkkkkkkkkkkkkkkkkk",
"kkkkkkkkkkkkkkkkkkkkkkkk%%%%%%X.%ppppup;Xkkkkkkkkkkkkkkkkkkkkkkk",
"kkkkkkkkkkkkkkkkkkkkkkkk%%%%%%X.;ppppuppXkkkkkkkkkkkkkkkkkkkkkkk",
"kkkkkkkkkkkkkkkkkkkkkkkk%%%%%XXXp=iii-&&;Xkkkkkkkkkkkkkkkkkkkkkk",
"kkkkkkkkkkkkkkkkkkkkkkkkkO       -iii-*%X.kkkkkkkkkkkkkkkkkkkkkk",
"kkkkkkkkkkkkkkkkkkkkkkkkkkX      -;;;-*%.kkkkkkkkkkkkkkkkkkkkkkk",
"kkkkkkkkkkkkkkkkkkkkkkkkkkX.      ****%%.kkkkkkkkkkkkkkkkkkkkkkk",
"kkkkkkkkkkkkkkkkkkkkkkkkkk%..            kkkkkkkkkkkkkkkkkkkkkkk",
"kkkkkkkkkkkkkkkkkkkkkkkkkk%%X    X%%X    kkkkkkkkkkkkkkkkkkkkkkk",
"kkkkkkkkkkkkkkkkkkkkkkkkkk*XX.   X%%X..  kkkkkkkkkkkkkkkkkkkkkkk",
"kkkkkkkkkkkkkkkkkkkkkkkkkk*%%.   X%%X..  kkkkkkkkkkkkkkkkkkkkkkk",
"kkkkkkkkkkkkkkkkkkkkkkkkkk%%X.  kX%%X..  kkkkkkkkkkkkkkkkkkkkkkk",
"kkkkkkkkkkkkkkkkkkkkkkkkkkkkkkkkk X%%..  kkkkkkkkkkkkkkkkkkkkkkk",
"kkkkkkkkkkkkkkkkkkkkkkkkkkkkkkkkkk      kkkkkkkkkkkkkkkkkkkkkkkk",
"kkkkkkkkkkkkkkkkkkkkkkkkkkkkkkkkk%%XX.  kkkkkkkkkkkkkkkkkkkkkkkk",
"kkkkkkkkkkkkkkkkkkkkkkkkkkkkkkkk %XX.    kkkkkkkkkkkkkkkkkkkkkkk",
"kkkkkkkkkkkkkkkkkkkkkkkkkkkkkkkk%%%%%XX. kkkkkkkkkkkkkkkkkkkkkkk",
"kkkkkkkkkkkkkkkkkkkkkkkkkkkkkkkk%XXXX.   kkkkkkkkkkkkkkkkkkkkkkk"
};
