/* XPM */
static char *_1150_a4b17c69876a5394c5f39106c15dff7e89d3ae8675298b0260c23d46cbb6c8e8[] = {
/* columns rows colors chars-per-pixel */
"64 64 58 1 ",
"  c black",
". c #00001C",
"X c #00002C",
"o c #000034",
"O c #202020",
"+ c #2C2C2C",
"@ c gray22",
"# c #543C1C",
"$ c #5C4020",
"% c #6C4824",
"& c #000040",
"* c #00004C",
"= c #000058",
"- c #000064",
"; c #000070",
": c #00007C",
"> c #484848",
", c gray33",
"< c #646464",
"1 c gray44",
"2 c #7C7C7C",
"3 c #9C4C00",
"4 c #80502C",
"5 c #885830",
"6 c #905C34",
"7 c #9C6038",
"8 c #A0643C",
"9 c #B47044",
"0 c #BC7848",
"q c #C87C4C",
"w c #B4AC00",
"e c #CCC400",
"r c #FCF400",
"t c #D08050",
"y c #DC8854",
"u c #E88C58",
"i c #F0945C",
"p c #FC9C60",
"a c #FCA470",
"s c #000088",
"d c #000098",
"f c #0000A4",
"g c #0000B0",
"h c #0000BC",
"j c #0000C8",
"k c #0000D4",
"l c #0000E0",
"z c #0000EC",
"x c #0000FC",
"c c #980088",
"v c gray55",
"b c #989898",
"n c gray66",
"m c #B4B4B4",
"M c #FCB080",
"N c #FCB890",
"B c #FCBC9C",
"V c #FCC4A4",
/* pixels */
"cccccccccccccccccccccccccccccccccccccccccccccccccccccccccccccccc",
"cccccccccccccccccccccccccccccccccccccccccccccccccccccccccccccccc",
"cccccccccccccccccccccccccccccccccccccccccccccccccccccccccccccccc",
"cccccccccccccccccccccccccccccccccccccccccccccccccccccccccccccccc",
"cccccccccccccccccccccccccccccccccccccccccccccccccccccccccccccccc",
"cccccccccccccccccccccccccccccccccccccccccccccccccccccccccccccccc",
"cccccccccccccccccccccccccccccccccccccccccccccccccccccccccccccccc",
"cccccccccccccccccccccccccccccccccccccccccccccccccccccccccccccccc",
"ccccccccccccccccccccccccccccccccffxccccccccccccccccccccccccccccc",
"ccccccccccccccccccccccccccccccfffx  cccccccccccccccccccccccccccc",
"ccccccccccccccccccccccccccccffffl    ccccccccccccccccccccccccccc",
"ccccccccccccccccccccccccccclllll      cccccccccccccccccccccccccc",
"ccccccccccccccccccccccccccc;;;;;      cccccccccccccccccccccccccc",
"ccccccccccccccccccccccccccc;;;;;    3ccccccccccccccccccccccccccc",
"ccccccccccccccccccccccccccc9rqhqi7hqe5cccccccccccccccccccccccccc",
"ccccccccccccccccccccccccccc4rNVMt5BNw%cccccccccccccccccccccccccc",
"ccccccccccccccccccccccccccc9pMMaaaaat5cccccccccccccccccccccccccc",
"ccccccccccccccccccccccccccccpua000a9tccccccccccccccccccccccccccc",
"ccccccccccccccccccccccccccccpuaaaaa9tccccccccccccccccccccccccccc",
"ccccccccccccccccccccccccccccpaaaqauy4ccccccccccccccccccccccccccc",
"ccccccccccccccccccccccccccc++99886644 cccccccccccccccccccccccccc",
"ccccccccccccccccccccccccccc++qqqq644  cccccccccccccccccccccccccc",
"cccccccccccccccccccccc;gOOO+nOqqi44 ,    *cccccccccccccccccccccc",
"cccccccccccccccccccccgggOOO= v  4  , -----**cccccccccccccccccccc",
"ccccccccccccccccccccgglgOOOg: *   * ;fffff;=*ccccccccccccccccccc",
"cccccccccccccccccccggg-dOOO&::::*::sssssss;*&*cccccccccccccccccc",
"ccccccccccccccccccgggs;-dOOO&:::*::=====&s=&o&cccccccccccccccccc",
"ccccccccccccccccccggg:;&dOOOO&::*::oddddo=*.Xo*ccccccccccccccccc",
"cccccccccccccccccgggs;= &&OO  &=o==ooooooX...Xoccccccccccccccccc",
"cccccccccccccccccgss;=* &:.    .ooo ====XX...Xo*cccccccccccccccc",
"ccccccccccccccccggg;*o  *-&     ...*XXXXX..XXXXocccccccccccccccc",
"ccccccccccccccccgg;gg:*  ==.  <<<12,.......oo1Xocccccccccccccccc",
"ccccccccccccccccggglgggvvv22221111111222vvbbnOoocccccccccccccccc",
"ccccccccccccccccc*k-:ggv,,,,,>>>>>>>>>>>>>,,,.oocccccccccccccccc",
"ccccccccccccccccc*sozjm ,,,>>@OOOOOOO       ,...cccccccccccccccc",
"cccccccccccccccccc*ojv::9   @..>>>+....%%%%% ,.ccccccccccccccccc",
"ccccccccccccccccccc*ov=8ppu6$..,>,+....50y7% ,cccccccccccccccccc",
"cccccccccccccccccccc*,*ypy8#   ,,,+    50y7% ccccccccccccccccccc",
"cccccccccccccccccccccc*ypp8#   ,,,+    588%% ccccccccccccccccccc",
"cccccccccccccccccccccccj88%#                cccccccccccccccccccc",
"cccccccccccccccccccccccjfs--&XXXXXXXXXX...cccccccccccccccccccccc",
"cccccccccccccccccccccccc;;*&.............ccccccccccccccccccccccc",
"cccccccccccccccccccccccch::*ooX...o***oo.ccccccccccccccccccccccc",
"cccccccccccccccccccccccch::*ooX..o*---*ooccccccccccccccccccccccc",
"cccccccccccccccccccccccch::*ooX..*---s-*occccccccccccccccccccccc",
"cccccccccccccccccccccccch::*ooX..*---s-*occccccccccccccccccccccc",
"cccccccccccccccccccccccch::*ooX..*---s-*occccccccccccccccccccccc",
"cccccccccccccccccccccccchs:*ooX..*-;ds**occccccccccccccccccccccc",
"cccccccccccccccccccccccchf:*&oX..*---s**occccccccccccccccccccccc",
"cccccccccccccccccccccccchs:*ooX..*&;d;o**ccccccccccccccccccccccc",
"cccccccccccccccccccccccchd;*ooX..o:--s*ooccccccccccccccccccccccc",
"ccccccccccccccccccccccchjlf-**oX.oossss*o cccccccccccccccccccccc",
"ccccccccccccccccccccccchf:;*ooX..o*--foo* cccccccccccccccccccccc",
"ccccccccccccccccccccccch::**oX...o*--*ooo cccccccccccccccccccccc",
"cccccccccccccccccccccccc--**oX..c &ooooo  cccccccccccccccccccccc",
"cccccccccccccccccccccccc        c        ccccccccccccccccccccccc",
"cccccccccccccccccccccccc X&     c   &X   ccccccccccccccccccccccc",
"ccccccccccccccccccccccccc&&X    c  X&&  cccccccccccccccccccccccc",
"ccccccccccccccccccccccccc X&   ccc &    cccccccccccccccccccccccc",
"ccccccccccccccccccccccccc      ccc  XX  cccccccccccccccccccccccc",
"cccccccccccccccccccccccc X&&X   c  X&X   ccccccccccccccccccccccc",
"ccccccccccccccccccccccccX&&&&   c X&&&X  ccccccccccccccccccccccc",
"ccccccccccccccccccccccc &&&&X   c X&&&X   cccccccccccccccccccccc",
"ccccccccccccccccccccccc XXX    ccc XXXX   cccccccccccccccccccccc"
};
