/* XPM */
static char *_3944_a76fdc6ec1f5a1be38b7ec7705a3bb943eda9471b7e11726182b4b43db85754a[] = {
/* columns rows colors chars-per-pixel */
"64 64 41 1 ",
"  c black",
". c gray11",
"X c #002800",
"o c #003800",
"O c #202020",
"+ c #282828",
"@ c #2C2C2C",
"# c gray22",
"$ c #580000",
"% c #044000",
"& c #044C00",
"* c #045800",
"= c #046400",
"- c #5C4020",
"; c #6C4824",
": c #004040",
"> c #005858",
", c #007070",
"< c gray25",
"1 c #484848",
"2 c #4C4C4C",
"3 c gray33",
"4 c gray36",
"5 c #646464",
"6 c gray44",
"7 c #7C7C7C",
"8 c #880000",
"9 c #885830",
"0 c #9C6038",
"q c #FFC0CB",
"w c #008484",
"e c gray55",
"r c #989898",
"t c gray66",
"y c #B4B4B4",
"u c #FCB8B8",
"i c #C0C0C0",
"p c #D0D0D0",
"a c gainsboro",
"s c #ECECEC",
"d c gray99",
/* pixels */
"qqqqqqqqqqqqqqqqqqqqqqqqqqqqqqqqqqqqqqqqqqqqqqqqqqqqqqqqqqqqqqqq",
"qqqqqqqqqqqqqqqqqqqqqqqqqqqO@########@@qqqqqqqqqqqqqqqqqqqqqqqqq",
"qqqqqqqqqqqqqqqqqqqqqqqqqq@###########@Oqqqqqqqqqqqqqqqqqqqqqqqq",
"qqqqqqqqqqqqqqqqqqqqqqqqqq@OO@@####@@OOOqqqqqqqqqqqqqqqqqqqqqqqq",
"qqqqqqqqqqqqqqqqqqqqqqqqqq@OOOOOOOOOOOOOqqqqqqqqqqqqqqqqqqqqqqqq",
"qqqqqqqqqqqqqqqqqqqqqqqqqq@661OOOOOO166Oqqqqqqqqqqqqqqqqqqqqqqqq",
"qqqqqqqqqqqqqqqqqqqqqqqqqq@tddddddddddtOqqqqqqqqqqqqqqqqqqqqqqqq",
"qqqqqqqqqqqqqqqqqqqqqqqqqq@6saiiddiias6Oqqqqqqqqqqqqqqqqqqqqqqqq",
"qqqqqqqqqqqqqqqqqqqqqqqqq6O6idaaiiaadi6O6qqqqqqqqqqqqqqqqqqqqqqq",
"qqqqqqqqqqqqqqqqqqqqqqqqqyO6t7taridt7t6Oeqqqqqqqqqqqqqqqqqqqqqqq",
"qqqqqqqqqqqqqqqqqqqqqqqqq7riu$8373#$$ue66qqqqqqqqqqqqqqqqqqqqqqq",
"qqqqqqqqqqqqqqqqqqqqqqqqqyrditiiatiitit6eqqqqqqqqqqqqqqqqqqqqqqq",
"qqqqqqqqqqqqqqqqqqqqqqqqqqrddddddpsdddy6qqqqqqqqqqqqqqqqqqqqqqqq",
"qqqqqqqqqqqqqqqqqqqqqqqqqqqeiditr7etsi3**&&ooqqqqqqqqqqqqqqqqqqq",
"qqqqqqqqqqqqqqqqqqqqqqqqq*Xredtayaaey75oooooooooqqqqqqqqqqqqqqqq",
"qqqqqqqqqqqqqqqqqqqqq***==Xyep7rrrr7y75XXXXXXXoooo7qqqqqqqqqqqqq",
"qqqqqqqqqqqqqqqqqqq***====Xtpptddddeyr1XXXXXXXoXoot5qqqqqqqqqqqq",
"qqqqqqqqqqqqqqqqq*&*===*=**Xpptiittey6XXXXXXXXXXXXi7&qqqqqqqqqqq",
"qqqqqqqqqqqqqqqq==*&***=**=&epddddpprXXXXXXXXXXXXXXi5qqqqqqqqqqq",
"qqqqqqqqqqqqqqq*===*%&***&&&&7rrrrr61XXXXXXXXXXXXXXi7&oqqqqqqqqq",
"qqqqqqqqqqqqqq*=====&%&&&&&&&%%,5333311#OXXXXXXXXXXoi5XXXqqqqqqq",
"qqqqqqqqqqqqqq=**===&%&&&&&&%,551,w,:O#,w,XXXX XXXooi7ooooqqqqqq",
"qqqqqqqqqqqqq****==*&%%&&&&%,,51,w  >O,w  >XXXX XXXo&i5&&&qqqqqq",
"qqqqqqqqqqqqq***==*&&%&&&&%,w53@,,  :O>,  :XXX  XoX&&i7-t33qqqqq",
"qqqqqqqqqqqq***===*&oo%&&&>w,51O:>>:OO:>>:OOXXXoXoX&&&9-6633qqqq",
"qqqqqqqqqqqq***==*&&Xo%%%%>w557,w,:O::OOO>,,XXoXoXoo&&e76731qqqq",
"qqqqqqqqqqq***==*&&&oo%%%%>w5rr7  >:::>O>,  >XXoXXoo&&teee531qqq",
"qqqqqqqqqqq**=&&&%%%&o%%%%>,rrri  ::::>O>,  :XXXXXooo&teee733qqq",
"qqqqqqqqqqq**&&*&***&&%%%%>rrri>>:OO>>OOO:>:XXoXXXXooooteee53qqq",
"qqqqqqqqqqqq&&*&****&&%%%%rrriOO#>,,:OO>,,OOXXXXXXXXooootee7qqqq",
"qqqqqqqqqqqq&&&*&**&**%%%rrri1@O>,  >O>,  >XXXXXXXXXXXoooqqqqqqq",
"qqqqqqqqqqqqq&*&&*****&%rrri>1#O>,  :O>,  :XXXXXXXXXXoooXqqqqqqq",
"qqqqqqqqqqqq&%&&&***r70r5%io::1@:>>:OOO:>:XXXXXXXoXXoXXXooqqqqqq",
"qqqqqqqqqqqq&&oo&&*rr00;%oooo::#@OOOOOOOXXXXXXXXXXXoXo%%ooqqqqqq",
"qqqqqqqqqqqq&**oo&rryr;;oooooo166XXXXXXXXXXXXo6XX#Xo%%ooXXqqqqqq",
"qqqqqqqqqqqq**&%%rryr55ooooo16666XXXXo%%%%oooo76X1#o%%%%oXqqqqqq",
"qqqqqqqqqqqq***%7ryr5531oo1666eteXXoooooooooo%r6611o%%%%oXqqqqqq",
"qqqqqqqqqqqq*&%77yr5531o1666ett5oXoo&&&&&&&&%or766#ooooooXqqqqqq",
"qqqqqqqqqqqqq&%7776531o666ett5XXXXo&&******&&%r7666Xrr3#XXqqqqqq",
"qqqqqqqqqqqqqq%7315511;11et5XXXXXX&&********&&ar7616-533#Xqqqqqq",
"qqqqqqqqqqqqqqqq33111;&&o%%oXXXXX%&&*******&*&%y765--5331qqqqqqq",
"qqqqqqqqqqqqqqqqq3##&*&%%&&oXooXX%&%********&&%ot75r53333qqqqqqq",
"qqqqqqqqqqqqqqqqqq&&*&%&&&&Xo%XXXO%&&&*====**&&%oeq311133qqqqqqq",
"qqqqqqqqqqqqqqqqqq&&*&&*&%oo%XXXXO%&*&&=====*&&%oqqq31113qqqqqqq",
"qqqqqqqqqqqqqqqqqq&&***&%oo&XXoXOO%&**&*===*&&%ooqqqq1111qqqqqqq",
"qqqqqqqqqqqqqqqqqq&&**&%o&&%%oXXO %&*=&&***&&&&%oqqqqqqqqqqqqqqq",
"qqqqqqqqqqqqqqqqqq&*=&%&&&ooXXXXO &==&%&&&&%%%%&&oqqqqqqqqqqqqqq",
"qqqqqqqqqqqqqqqqqq*=*&&*&ooXooXO &**%%%%%%%%%%X%&&qqqqqqqqqqqqqq",
"qqqqqqqqqqqqqqqqq*====*&%ooo%X   &*%***%%%%%%%oXooqqqqqqqqqqqqqq",
"qqqqqqqqqqqqqqqqq*&o*==*&%XXoXXOO&%oooo%*&&&&oooXoqqqqqqqqqqqqqq",
"qqqqqqqqqqqqqqqqq&&oooooooXXOXXOO.@o%%%%&XXXXXXXXqqqqqqqqqqqqqqq",
"qqqqqqqqqqqqqqqqqqq&oooXXXXXXXX  .qo%%oooooooooXXqqqqqqqqqqqqqqq",
"qqqqqqqqqqqqqqqqqqqqXooooooXXX   .qooX        XXXqqqqqqqqqqqqqqq",
"qqqqqqqqqqqqqqqqqqqqq XXXXXX    .  oX +@ . ..   Xqqqqqqqqqqqqqqq",
"qqqqqqqqqqqqqqqqqqqqqq             q O+@++O...  qqqqqqqqqqqqqqqq",
"qqqqqqqqqqqqqqqqqqqqqqqq           q O+@ .   .  qqqqqqqqqqqqqqqq",
"qqqqqqqqqqqqqqqqqqqqqqqq.... .     q @ O++O.    qqqqqqqqqqqqqqqq",
"qqqqqqqqqqqqqqqqqqqqqqq            qq O+ . ..  qqqqqqqqqqqqqqqqq",
"qqqqqqqqqqqqqqqqqqqqqq .+++.      qqq  @O.O.   qqqqqqqqqqqqqqqqq",
"qqqqqqqqqqqqqqqqqqqqqq .++....    ##.O+##@+O..  qqqqqqqqqqqqqqqq",
"qqqqqqqqqqqqqqqqqqqqqq .......   @@@.O+@@@+O..  #135qqqqqqqqqqqq",
"qqqqqqqqqqqqqqqqqqqqqqq         #@@..O+++++O..  @#1345qqqqqqqqqq",
"qqqqqqqqqqqqqqqqqqqqqqq554433221<<#..O       .. @#13345qqqqqqqqq",
"qqqqqqqqqqqqqqqqqqqqqqqq5554433221<<           @#13455qqqqqqqqqq"
};
