/* XPM */
static char *_24d6a9d71594669fa1f8dcc5f54a308Mf0Ul7Lv514yJ9vj[] = {
/* columns rows colors chars-per-pixel */
"129 127 76 1 ",
"  c black",
". c #0B0001",
"X c #130001",
"o c #1F0001",
"O c #2B0001",
"+ c #370001",
"@ c #2B230F",
"# c #3B2F17",
"$ c #232323",
"% c #2F2F2F",
"& c gray20",
"* c gray23",
"= c #430001",
"- c #4B0001",
"; c #570001",
": c #630001",
"> c #6F0001",
", c #770001",
"< c #43331B",
"1 c #4B3B1B",
"2 c #573F1F",
"3 c #5F4323",
"4 c #6F4B27",
"5 c #774F2B",
"6 c #004343",
"7 c #005B5B",
"8 c #006F6F",
"9 c #007373",
"0 c #007F7F",
"q c #4B4B4B",
"w c gray34",
"e c #676767",
"r c gray45",
"t c gray50",
"y c #830001",
"u c #8F0001",
"i c #9F0001",
"p c #83532F",
"a c #875333",
"s c #8B5B33",
"d c #935F37",
"f c #9F633B",
"g c #A3673F",
"h c #851F61",
"j c #AB6B43",
"k c #B77347",
"l c #BF7B4B",
"z c #CB7F4F",
"x c #D38353",
"c c #DF8B57",
"v c #EB8F5B",
"b c #F3975F",
"n c #FF9F63",
"m c #FFA773",
"M c #C12D8D",
"N c #008787",
"B c #009F9F",
"V c #00B7B7",
"C c gray56",
"Z c #9B9B9B",
"A c gray67",
"S c #B7B7B7",
"D c #FFB383",
"F c #FFBB93",
"G c #FFBF9F",
"H c #FFC7A7",
"J c #FFCFB3",
"K c #FFD7BF",
"L c #C3C3C3",
"P c LightGray",
"I c #DFDFDF",
"U c #FFDBC7",
"Y c #FFE3D3",
"T c #FFEBDF",
"R c #EFEFEF",
"E c white",
/* pixels */
"MMMMMMMMMMMMMMMMMMMMMMMMMMMMMMMMMMMMMMMMMMMMMMMMMMMMMMMMMMMMMMMMMMMMMMMMMMMMMMMMMMMMMMMMMMMMMMMMMMMMMMMMMMMMMMMMMMMMMMMMMMMMMMMMh",
"MMMMMMMMMMMMMMMMMMMMMMMMMMMMMMMMMMMMMMMMMMMMMMMMMMMMMMMMMMMMMMMMMMMMMMMMMMMMMMMMMMMMMMMMMMMMMMMMMMMMMMMMMMMMMMMMMMMMMMMMMMMMMMMMh",
"MMMMMMMMMMMMMMMMMMMMMMMMMMMMMMMMMMMMMMMMMMMMMMMMMMMMMMMMMMMMMMMMMMMMMMMMMMMMMMMMMMMMMMMMMMMMMMMMMMMMMMMMMMMMMMMMMMMMMMMMMMMMMMMMh",
"MMMMMMMMMMMMMMMMMMMMMMMMMMMMMMMMMMMMMMMMMMMMMMMMMMMMMMMMMMMMMMMMMMMMMMMMMMMMMMMMMMMMMMMMMMMMMMMMMMMMMMMMMMMMMMMMMMMMMMMMMMMMMMMMh",
"MMMMMMMMMMMMMMMMMMMMMMMMMMMMMMMMMMMMMMMMMMMMMMMMMMMMMMMMMMMMMMMrCCZSSSZrrMMMMMMMMMMMMMMMMMMMMMMMMMMMMMMMMMMMMMMMMMMMMMMMMMMMMMMMh",
"MMMMMMMMMMMMMMMMMMMMMMMMMMMMMMMMMMMMMMMMMMMMMMMMMMMMMMMMMMMMMLIIIIIIIIIIPSSrMMMMMMMMMMMMMMMMMMMMMMMMMMMMMMMMMMMMMMMMMMMMMMMMMMMMh",
"MMMMMMMMMMMMMMMMMMMMMMMMMMMMMMMMMMMMMMMMMMMMMMMMMMMMMMMMMMMLIRRRRRRRRRRIIPSZZrMMMMMMMMMMMMMMMMMMMMMMMMMMMMMMMMMMMMMMMMMMMMMMMMMMh",
"MMMMMMMMMMMMMMMMMMMMMMMMMMMMMMMMMMMMMMMMMMMMMMMMMMMMLLtqqeIRRRRRPSZqq****$$MttrMMMMMMMMMMMMMMMMMMMMMMMMMMMMMMMMMMMMMMMMMMMMMMMMMh",
"MMMMMMMMMMMMMMMMMMMMMMMMMMMMMMMMMMMMMMMMMMMMMMMMMMLRPStqrIRRRRPSteeqqqqq*$$$MttrMMMMMMMMMMMMMMMMMMMMMMMMMMMMMMMMMMMMMMMMMMMMMMMMh",
"MMMMMMMMMMMMMMMMMMMMMMMMMMMMMMMMMMMMMMMMMMMMMMMMMLRPSwwqSRRRRPZewqqqqqqqq*$$MMrrMMMMMMMMMMMMMMMMMMMMMMMMMMMMMMMMMMMMMMMMMMMMMMMMh",
"MMMMMMMMMMMMMMMMMMMMMMMMMMMMMMMMMMMMMMMMMMMMMMMMLRRSZwwqIRRRPZwq**qqCLCeq**$$MMrrMMMMMMMMMMMMMMMMMMMMMMMMMMMMMMMMMMMMMMMMMMMMMMMh",
"MMMMMMMMMMMMMMMMMMMMMMMMMMMMMMMMMMMMMMMMMMMMMMMLRRPSCqqARRRPStq%%**ZIRRZe 1qqqq**MMMMMMMMMMMMMMMMMMMMMMMMMMMMMMMMMMMMMMMMMMMMMMMh",
"MMMMMMMMMMMMMMMMMMMMMMMMMMMMMMMMMMMMMMMMMMMMMMLRRRPAtqqIRRRSSt*%%**ZIRRRZe qqqq**MMMMMMMMMMMMMMMMMMMMMMMMMMMMMMMMMMMMMMMMMMMMMMMh",
"MMMMMMMMMMMMMMMMMMMMMMMMMMMMMMMMMMMMMMMMMMMMMSIRRPSCeqqRRRRRRRRLe$$%eSRRRLZtwqq  MMMMMMMMM:::=MMMMMMMMMMMMMMMMMMMMMMMMMMMMMMMMMMh",
"MMMMMMMMMMMMMMMMMMMMMMMMMMMMMMMMMMMMMMMMMMMMMIRRRPSteqqRRRRRRRRRL$$%%eSRRRRZtwq  MMMMMMMM:OOOi=MMMMMMMMMMMMMMMMMMMMMMMMMMMMMMMMMh",
"MMMMMMMMMMMMMMMMMMMMMMMMMMMMMMMMMMMMMMMMMMMMSRRRRPSe.qqRRGTTYHPRRx1@@$CRRPPRZee**MMMMMMMM:OOOi=:MMMMMMMMMMMMMMMMMMMMMMMMMMMMMMMMh",
"MMMMMMMMMMMMMMMMMMMMMMMMMMMMMMMMMMMMMMMMMMMMIRRRRSS..qqRPGTTYHHRRFRx1$$LRwwZZee**rMMMMMMM:OOyi=,=MMMMMMMMMMMMMMMMMMMMMMMMMMMMMMMh",
"MMMMMMMMMMMMMMMMMMMMMMMMMMMMMMMMMMMMMMMM,==ZRRRRPRRZM**PlGYYJHFRRRJnx# CLkpPRAteewrMMMMMM.iiiOOi==MMMMMMMMMMMMMMMMMMMMMMMMMMMMMMh",
"MMMMMMMMMMMMMMMMMMMMMMMMMMMMMMMMMMMMMM::u==SRRRPSRRSM**fxGHHFFJRRRFJFvvwCcCRRAtee*wrMMMMMM.OO;,i=,=MMMMMMMMMMMMMMMMMMMMMMMMMMMMMh",
"MMMMMMMMMMMMMMMMMMMMMMMMMMMMMMMMMMMMM:i;u..LRRPAeZSSMs*fvIRLZGRRRUUDGGJKDcPRRCteAM*wMMMMMMM.;:i-,uO=MMMMMMMMMMMMMMMMMMMMMMMMMMMMh",
"MMMMMMMMMMMMMMMMMMMMMMMMMMMMMMMMMMMMi::i>>.LRPSeeMMMMs*fLRRAZFRRRUbmFYYKDxRRPttArMM*MMMMMMMM.OO,u=,==MMMMMMMMMMMMMMMMMMMMMMMMMMMh",
"MMMMMMMMMMMMMMMMMMMMMMMMMMMMMMMMMMMMi,=.>>.LPSreMRPMMkfIRRLZmRRPxxmYHbzzzRRPZttreeMMMMMMMMMMM.;;;,;:-MMMMMMMMMMMMMMMMMMMMMMMMMMMh",
"MMMMMMMMMMMMMMMMMMMMMMMMMMMMMMMMMMM;:i,;...LAeeMMCRSMlLRRIZ55RRfHHfbb55pRRPAZttteewMMMMMMMMMMM.;::O:-:MMMMMMMMMMMMMMMMMMMMMMMMMMh",
"MMMMMMMMMMMMMMMMMMMMMMMMMMMMMMMMMMM,i=O...MAreMMMMttMSRRRLZ4<<$<jj<$<<2RRPAZtEtZeewwMMMMMMMMMMMOO-:-::MMMMMMMMMMMMMMMMMMMMMMMMMMh",
"MMMMMMMMMMMMMMMMMMMMMMMMMMMMMMMMMMM=,,,;.MMteMMMMMMMZIRRRAtmzkglHHlgkzmRRAZtEEZZeewwMMMMMMMMMMMOO--::.MMMMMMMMMMMMMMMMMMMMMMMMMMh",
"MMMMMMMMMMMMMMMMMMMMMMMMMMMMMMMMMMM===O..MMeMMMPRMMMPRRPAZTGGRRzYYzvDFFTHvvEEIAZeeMMMMMMMMMMMMM==OOXX.MMMMMMMMMMMMMMMMMMMMMMMMMMh",
"MMMMMMMMMMMMMMMMMMMMMMMMMMMMMMMMMMM==OO..MMMMMMAPRMMPRPAZJUHcRRbYYbDznRUHDxEEIACeewMMMMMMMMMMMM=:::XX.MMMMMMMMMMMMMMMMMMMMMMMMMMh",
"MMMMMMMMMMMMMMMMMMMMMMMMMMMMMMMMMMMX;;OOO.MMMMMZLRRMZLAZbnnnzd5dccd5dznnnblEIIAteeMMMMMMMMMMMM:==OOXX.MMMMMMMMMMMMMMMMMMMMMMMMMMh",
"MMMMMMMMMMMMMMMMMMMMMMMMMMMMMMMMMMMXXOO;;..MSMMMALRREttdccnkgz5$%%$5zgknccPEIACeeeMMMMMMMMMMMM>>=-OXX.MMMMMMMMMMMMMMMMMMMMMMMMMMh",
"MMMMMMMMMMMMMMMMMMMMMMMMMMMMMMMMMMMM.X;;O;..MMMMtALPREERRjvPPn5    5nnkvklpIICeeeMMMMMMMMMMMM-->:X-..MMMMMMMMMMMMMMMMMMMMMMMMMMMh",
"MMMMMMMMMMMMMMMMMMMMMMMMMMMMMMMMMMMM.XXO;,O;.SMMMrrtCEERRLPPPs554455szdcgReICeqeeMMMMMMMMMMM->>O:X-.XMMMMMMMMMMMMMMMMMMMMMMMMMMMh",
"MMMMMMMMMMMMMMMMMMMMMMMMMMMMMMMMMMMMM..X;O;OO.MMMMMMM  2LRPLP<<<<<<<<pdzRPeeeqqwwMMMMMMMMMM>>-:-X:.XMMMMMMMMMMMMMMMMMMMMMMMMMMMMh",
"MMMMMMMMMMMMMMMMMMMMMMMMMMMMMMMMMMMMMM..XO;OO...MMMMM  1dRLLPetZZZZtelzRPA1  qqwwMMMMMMMM::O->O:X.XXMMMMMMMMMMMMMMMMMMMMMMMMMMMMh",
"MMMMMMMMMMMMMMMMMMMMMMMMMMMMMMMMMMM66666666666666PPMMMM@aPLLvnmDFFDmnvzRAa@  %%%rr66666666666.-..XXMMMMMMMMMMMMMMMMMMMMMMMMMMMMMh",
"MMMMMMMMMMMMMMMMMMMMMMMMMMMMMMMMM6666666666666666SPPMMM@4LLbvxkkjjkkxvbzd4t* %%%Zrw666666666666..XMMMMMMMMMMMMMMMMMMMMMMMMMMMMMMh",
"MMMMMMMMMMMMMMMMMMMMMMMMMMMMMMM6%%%%         RR   SPPMMeepkvbRbmGGmbnRPkpIRr*%% Iww            66MMMMMMMMMMMMMMMMMMMMMMMMMMMMMMMh",
"MMMMMMMMMMMMMMMMMMMMMMMMMMMMMM6%%            RRS   SPPMee4pzcmDFGGFDmPPpCRLre%%IAw             X 6MMMMMMMMMMMMMMMMMMMMMMMMMMMMMMh",
"MMMMMMMMMMMMMMMMMMMMMMMMMMMMM6%%     <4sfjjSj%SS%%%gSP     dkcbRRDmbckd%IRCrw<<Aww<1111#@         6MMMMMMMMMMMMMMMMMMMMMMMMMMMMMh",
"MMMMMMMMMMMMMMMMMMMMMMMMMMMMM%%    <45ssdjjjj%%%%%%gg      4psgRRkkgsp4CILCr*<<ww<133111##@         MMMMMMMMMMMMMMMMMMMMMMMMMMMMh",
"MMMMMMMMMMM>>;;;;O>MMMMMMMMM6%    <4sjjjdsfgg11%%%%RRg   ZZ%%%%%%%%%%%%ILCrw*333333313311<<#@        MMMMMMMMMMMMMMMMMMMMMMMMMMMh",
"MMMMMMMMMM>>;;;;;;O>MMMMMMMM6%   <4sjjjjjdsggS1%%%%RRgg  ZZ%%%%%%%%%%%ILCrw**3333333133111<##@       MMMMMMMMMMMMMMMMMMMMMMMMMMMh",
"MMMMMMMMM>>;;;;;;;;O>MMMMMMM    00000000000000000000766%%%%ZZ        ILCrew*36666667700000000776      %MMMMMMMMMMMMMMMMMMMMMMMMMh",
"MMMMMMMM>>;;;;;;;;;;O>MMMM     0000000000000000000000766%%%ZZ       CLCrew*3366666770000000000866     %MMMMMMMMMMMMMMMMMMMMMMMMMh",
"MMMMMMM>>%qqqNN99**;;XX$$%%   NNNNNNNNNNNNNNNNNRRNNNNN9766%    55<< rreew*36666667700NNNNNNNNNN876   $$%%MMMMM>::;;;;>MMMMMMMMMMh",
"MMMMMMy>wqqq96$$69**%XX$$%%  NNNNNNNNNNNNNNNNNNRRSNNSNN07766   55<<  ***3336666777800NNNNNNNNNNN866  $$%%MMMM>;======;>MMMMMMMMMh",
"MMMMM>>wq**N6    67%*%X$$%$ 70000000000000000000SS00000000088%%%%%%667777777777778800000000000000766 $$%%  M>++++++XXXX>MMMMMMMMh",
"MMMMM>wq***N6    67$%*%$$%$7N00000000000000000000000000000088%%%%%%6677777777777888000000000000007666$$%%  >+++++++XXXX+>MMMMMMMh",
"MMMMMwq****96   $67$%%*$$%$NN9988888888888888888888SS88S88888%%66667777777777787888888888888888887766$%%%%X+%%**qqqqqq%XX;MMMMMMh",
"MMMMMw*****%96$$67$$%%%*$%7NN9988888888888888888888SS88888888%%66667777777777787888888888888888887766$%%%X%%**%%%%%*qqq*%O;MMMMMh",
"MMMqqq******%7777$$$%%%**%99999999999999999999999999999999999%%66669977777777787888888888888888887766$***99NN%%%%%%%%99NN%X;MMMMh",
"MMMqq********$$$$$$%%%%**%99999999999999999999999999999999999%%66669977777777787888888888888888887766$**96  69%%%%%%96  69%OMMMMh",
"MMMqqNN99***$   $$%%%NN99*79999999999999999999999999999999999%%&&&&9777777777777777777777777777777766$*76    6N%%%%76    6N%MMMMh",
"MMMq96$$69*$ 9976$$%96$$6977777777777777777777777777777777777%%&&&&9977777777777777777777777777777766$*76    6N%%%%76    6NqMMMMh",
"MMMN6    67 7$  $6$N6    677777777777777777777777777777777777%%&&&&7777777777777777777777777777777766$q76    69%%%%76    69qqMMMh",
"MMMN6    67 6    7$N6    676666666666666666666666666666666666%%&&&&776666666666666666666666666666666%$q*76  69%$$$$%76  69**qMMMh",
"MMM96   $67 6$  $7$96   $666666666666666666666666666666666666%%&&&&666666666666666666666666666666666%$*%%7777%$$   $%7777***qqMMh",
"MMM%96$$67$$ 6777$$%96$$6766666666666666666666666666666666666%%&&&&666666666666666666666666666666666%%%%%%%%%$$6799 $%%******qMMh",
"MMM%%7777$$$%   $$$%$7777$66666666666666666666666666666666666%%&&&&666666666666666666666666666666666%%%%%%%%%$6$  $7 %%%*****qMMh",
"MMMq$$$$$$$$%NN99$%%%$$$$66&&&&&&&&&&&&&&&&&&&&&&&&&&&&&&&&&&%%&&&&66&&&&&&&&&&&&&&&&&&&&&&&&&&&&&&&%%%%%%%%%$7    6 %%%%%***qMMh",
"MMMM%$$$$$$%96$$69%%%%$$$66&&&&&&&&&&&&&&&&&&&&&&&&&&&&&&&&&&%%&&&&66&&&&&&&&&&&&&&&&&&&&&&&&&&&&&&&%%%%%%%%%$7$  $6 %%%%%%***MMh",
"MMMMM%%%%%%N6    67%%%%$ 66&&&&&&&&&&&&&&&&&&&&&&&&&&&&&&&&&&%%&&&&66&&&&&&&&&&&&&&&&&&&&&&&&&&&&&&&%%%%%99NN$$7776 %99NN%%%%*MMh",
"MMMMM$%%%%%N6    67%%%$MM66&&&&&&666666666666666666666666%%&&%%&&&&66&&&&6666666666666666666666&&&&&%$%%96  69%$   %96  69%%%MMMh",
"MMMMM+%%%%%96   $67%%$.MM66&&&&&&666666666666666666666666$%&&%%&&&&66&&&&6666666666666666666666&&&&&%$%76    6N%%%%76    6N%%MMMh",
"MMMMM::$%%%%96$$67$$$..MMM66&&&&&&66666666666666666666666$$&&%%&&&&66&&&&66666666666666666666$$&&&&&%%%76    6N%%%%76    6N%MMMMh",
"MMMMM::++$%%%7777$$....MMM666&&&&&&6666666666666666666666$$&&%%&&&&66&&&&66666666666666666666$$&&&&&%%%76    69%%%%76    69%MMMMh",
"MMMMMMMMMMM          MMMMMM666&&&&&&&%$$$$$$$$$$$$$$$$$$$$%&&%%&&&&66&&&&&&%%%%%%%%%%$$$$$$$$$%&&&&&%%M 76  69%%%%%%76  69$oMMMMh",
"MMMMMMMMMMMggssss3333MMMMMMM66&&&&&&&%%%%%%$$$$$$$$$$$$$$%%&&%%&&&&66&&&&&&%%%%%%$$$$$$$$$$$$%%&&&&%%MMM 7777%%%%%%%%7777%.oMMMMh",
"MMMMMMM..                MMMM66&&&&&&&&&&&&&&&&&&&&&&&&&&&&&&%%&&&&66&&&&&&&&&&&&&&&&&&&&&&&&&&&&&%%MMMMM $$$%%%%%%%%%%%$..oMMMMh",
"MMMMMMM..                MMMM66&&&&&&&&&&&&&&&&&&&&&&&&&&&&&&%%&&&&66&&&&&&&&&&&&&&&&&&&&&&&&&&&&%%%MMMMM  $$$$%%%%%%%$$...oMMMMh",
"MMMMMMM;;+++%qqq*****%+..MMMMM66&&&&&&&&&&&&&&&&&&&&&&&&&&&&&%%&&&&66&&&&&&&&&&&&&&&&&&&&&&&&&&&%%%MMMMMMMMMMggssssss33MMMMMMMMMh",
"MMMMMMM;;+%*qqq*%%%%%**%.MMMMMM66&&&&&&&&&&&&&&&&&&&&&&&&&&&&%%&&&&66&&&&&&&&&&&&&&&&&&&&&&&&&&&%%MMMMMMMMMMMggssssss33MMMMMMMMMh",
"MMMMMMM;;%NN99%%%%%%%%NN99MMMMM666&&&&&&&&&&&&&&&&&&&&&&&&&&&%%&&&&66&&&&&&&&&&&&&&&&&&&&&&&&&&%%%MMMMM..                MMMMMMMh",
"MMMMMMM;%96  69%%%%%%96  69MMMMM66&&&&&&&&&&&&&&&&&&&&&&&&&&&%%&&&&66&&&&&&&&&&&&&&&&&&&&&&&&&%%%MMMMMM..                .MMMMMMh",
"MMMMMMM%N6    67%%%%N6    67MMMMM%%%%%%%%%%%%%%%%%%%%%%%%%%%%$$    $$%%%%%%%%%%%%%%%%%%%%%%%%%%%MMMMMMM;;++**99NNqqq%++...MMMMMMh",
"MMMMMMMqN6    67%%%%N6    67MMMMM%%%%%%%%%%%%%%%%%%%%%%%%%%%%$$    $$%%%%%%%%%%%%%%%%%%%%%%%%%%MMMMMMMM;;%**96$$69qqqw%...MMMMMMh",
"MMMMMMqq96    67%%%%96    67MMM++++                                                              MMMMMM;%*%76    6N**qw%..MMMMMMh",
"MMMMMMq**96  67%$$$$%96  67*MMM++++                                                              MMMMMM%*%$76    6N***qw%.MMMMMMh",
"MMMMMqq***7777%$   $$%7777%%*MMoo                                                                MMMMM%*%%$76$   69****qw%MMMMMMh",
"MMMMMq******%%$ 9976$$%%%%%%%MMoo                                                                MMMMM*%%%$$76$$69%*****w%MMMMMMh",
"MMMMMq*****%%% 7$  $6$%%%%%%%MMMMMM                                                            MMMMMM**%%%$$$7777%******qq%MMMMMh",
"MMMMMq***%%%%% 6    7$%%%%%%%MMMMMM                                                            MMMMMM**%%%%$$$$$$********q%%MMMMh",
"MMMMM***%%%%%% 6$  $7$%%%%%%%MMMMMM                                                            MMMMM*99NN%%%$$   $***99NNqq%MMMMh",
"MMMMM*%%%%NN99% 6777$$NN99%%%MMMMMM                                                            MMMMM96$$69%$$6799 $*96$$69q%MMMMh",
"MMMMMM%%%96  69%   $%96  69%$MM7766$$                        %%%%99777777777777777777777777777777MM76    6N$6$  $7 76    6N%MMMMh",
"MMMMMM%%N6    67%%%%N6    67$MM7766$$                        %%%%99777777777777777777777777777777MM76    6N$7    6 76    6N%MMMMh",
"MMMMMMM%N6    67%%%%N6    67MMM7766$$$$$$$$$$$$$$$$$$$$$$$$$$%%%%99777777777777777777777777777777MM76$   69$7$  $6 76$   69%MMMMh",
"MMMMMMM-96    67%%%%96    67MMM7766$$$$$$$$$$$$$$$$$$$$$$$$$$%%%%66666666666666666666666666666666MM$76$$69%$$7776 $$76$$69%%MMMMh",
"MMMMMMM-$96  67%%%%%%96  67MMMM796666666666666666666666666666666666666666666666666666666666666666MMM$7777$%$$$   %$$$7777%%$MMMMh",
"MMMMMMM--%7777%%%%%%%%7777MMMMM796666666666666666666666666666666666666666666666666666666666666666MMM$$$$$%%%$99NN%$$$$$$$$$MMMMMh",
"MMMMMMM--+$%%%%%%%%%%%$$$MMMMMM66%%%%%%%%%%%%%%%%%%%%%%%%%%%%%%$$66%%%%%%%%%%%%%%%%%%%%%%%%%66666MMMM$$$%%%%96$$69%$$$$$$%MMMMMMh",
"MMMMMMM--++$$%%%%%%%$$$  MMMMMM66%%%%%%%%%%%%%%%%%%%%%%%%%%%%%%$$66666666666666666666666666666666MMMM$$%%%%76    6N%%%%%%%MMMMMMh",
"MMMMMMM--XXXX......      MMMMMM66%%%%%%%%%%%%%%%%%%%%%%%%%%%%%%$$66697777777777777777777777776%66MMMMM$$%%%76    6N%%%%%$.MMMMMMh",
"MMMMMMMMMMMMMMMMMMMMMMMMMMMMMMM66%%%%%%%%%%%%%%%%%%%%%%%%%%%%%%$$66797777777777777777777777776%66MMMMMM$$%%76$   69%%%%% .MMMMMMh",
"MMMMMMMMMMMMMMMMMMMMMMMMMMMMMMMMM$$$$$$$$$$$$$$$$$$$$$$$$$$$$$$$$66797777777777777777777777776%66MMMMMM-$$$$76$$69%%%%$  .MMMMMMh",
"MMMMMMMMMMMMMMMMMMMMMMMMMMMMMMMMM6$$$$$$$$$$$$$$$$$$$$$$$$$$$$$$$66799999999999999999999999999999N9MMMM--+$$$7777%%%$++  .MMMMMMh",
"MMMMMMMMMMMMMMMMMMMMMMMMMMMMMMMMM96%%%%%%%%%%%%%%%%%%%%%%%%%%$$MM66NNNNNNNNNNNNNNNNNNNNNNNNNNNNNNNNMMMM--XXXX......      .MMMMMMh",
"MMMMMMMMMMMMMMMMMMMMMMMMMMMMMMMMM96%%%%%%%%%%%%%%%%%%%%%%%%%%$$MM66NBBBBBBBBBBBBBBBBBBBBBBBBBBBBBBNMMMMMMMMMMMMMMMMMMMMMMMMMMMMMh",
"MMMMMMMMMMMMMMMMMMMMMMMMMMMMMMMMM96%%%%%%%%%%%%%%%%%%%%%%%%%%$$MMMMBBBBBBBBBBBBBBBBBBBBBBBBBBBBBBBBMMMMMMMMMMMMMMMMMMMMMMMMMMMMMh",
"MMMMMMMMMMMMMMMMMMMMMMMMMMMMMMMM996%%%%%%%%%%%%%%%%%%%%%%%%%%$$MMqqBBNNNNNNNNNNNNNNNNNNNNNNNNNNNNBBMMMMMMMMMMMMMMMMMMMMMMMMMMMMMh",
"MMMMMMMMMMMMMMMMMMMMMMMMMMMMM777976%%%%%%%%%%%%%%%%%%%%%%%%%%$$MMeeBBNNNNNNNNNNNNNNNNNNNNNNNNNNNNBBeeMMMMMMMMMMMMMMMMMMMMMMMMMMMh",
"MMMMMMMMMMMMMMMMMMMMMMMMMMMMM9N997%%%%%%%%%%%%%%%%%%%%%%%%%%%%$MMrrNB9999999999999999999999999999BNrrMMMMMMMMMMMMMMMMMMMMMMMMMMMh",
"MMMMMMMMMMMMMMMMMMMMMMMMMMMMM9NN97&&&&&&&&&&&&&&&&&&&&&&&&&&&$%MMwwNN9999999999999999999999999999NNwwMMMMMMMMMMMMMMMMMMMMMMMMMMMh",
"MMMMMMMMMMMMMMMMMMMMMMMMMMMMMNNN97&&&&&&&&&&&&&&&&&&&&&&&&&&&$%MM**9N7777777777777777777777777777N9**MMMMMMMMMMMMMMMMMMMMMMMMMMMh",
"MMMMMMMMMMMMMMMMMMMMMMMMMNNqqNNN97666666666666666666666666666%%%%**79777777777777777777777777777797**MMMMMMMMMMMMMMMMMMMMMMMMMMMh",
"MMMMMMMMMMMMMMMMMMMMMMMMMNNeeNN997777777666666666666666666666%%%%MM77666666666666666666666666666677MMMMMMMMMMMMMMMMMMMMMMMMMMMMMh",
"MMMMMMMMMMMMMMMMMMMMMMMMMNNrr9N977777777766666666666666666666%***MM67666666666666666666666666666676MMMMMMMMMMMMMMMMMMMMMMMMMMMMMh",
"MMMMMMMMMMMMMMMMMMMMMMMMMNNww99766666666666666666666666666666%***MM66%%%%%%%%%%%%%%%%%%%%%%%%%%%%66MMMMMMMMMMMMMMMMMMMMMMMMMMMMMh",
"MMMMMMMMMMMMMMMMMMMMMMMMMNN**7976666666666666666666666666666&%%%%MM66%%%%%%%%%%%%%%%%%%%%%%%%%%%%66MMMMMMMMMMMMMMMMMMMMMMMMMMMMMh",
"MMMMMMMMMMMMMMMMMMMMMMMMMNN**776&&&&&&&&&&&&&&&&&&&&&&&&&&&&&%%%%MMMMMMMMMMMMMMMMMMMMMMMMMMMMMMMMMMMMMMMMMMMMMMMMMMMMMMMMMMMMMMMh",
"MMMMMMMMMMMMMMMMMMMMMMMMMNNNN676%%%%%%%%%%%%%%%%%%%%%%%%%%%%%%$$$MMMMMMNN77766666666666666666%%MMMMMMMMMMMMMMMMMMMMMMMMMMMMMMMMMh",
"MMMMMMMMMMMMMMMMMMMMMMMMMNNNN666%%%%%%%%%%%%%%%%%%%%%%%%%%%%%%$$$MMMMMMNN97776666666666666666%%MMMMMMMMMMMMMMMMMMMMMMMMMMMMMMMMMh",
"MMMMMMMMMMMMMMMMMMMMMMMMMNN9966%$$$$$$$$$$$$$$$$$$$$$$$$$$$$$$$$$MMMMMMNN99777666666666666666%%MMMMMMMMMMMMMMMMMMMMMMMMMMMMMMMMMh",
"MMMMMMMMMMMMMMMMMMMMMMMMMNN9966%$$$$$$$$$$$$$$$$$$$$$$$$$$$$$$$$$MMMMMMNN99977766666666666666%%MMMMMMMMMMMMMMMMMMMMMMMMMMMMMMMMMh",
"MMMMMMMMMMMMMMMMMMMMMMMMMNN999999997766$$$$$$$$$$$$$$%%%%%%%%%%$$MMMMMMNN99997777666666666666%%MMMMMMMMMMMMMMMMMMMMMMMMMMMMMMMMMh",
"MMMMMMMMMMMMMMMMMMMMMMMMM9BN99999997766$$$$$$$$$$$$$$%%%%%%%%%%$$MMMMMM9977777777777777777777%%MMMMMMMMMMMMMMMMMMMMMMMMMMMMMMMMMh",
"MMMMMMMMMMMMMMMMMMMMMMMMM9BN99999999766MMMMMMMMMMMMMM%%%%%%%%%%$$MMMMMM9977777777777777777777%%MMMMMMMMMMMMMMMMMMMMMMMMMMMMMMMMMh",
"MMMMMMMMMMMMMMMMMMMMMMMMM9BNN9999999966MMMMMMMMMMMMMM%%%%%%%%%%$$MMMMMM9977777777777777777777%%MMMMMMMMMMMMMMMMMMMMMMMMMMMMMMMMMh",
"MMMMMMMMMMMMMMMMMMMMMMMMM9BNNN999999966MMMMMMMMMMMMMM%%%%%%%%%%$$9999999977777777777777777777%%66666666MMMMMMMMMMMMMMMMMMMMMMMMMh",
"MMMMMMMMMMMMMMMMMMMMMMMMM9BNNNNN9999966MMMMMMMMMMMMMM%%%%%%%%%%$$9999999977777777777777777777%677777776MMMMMMMMMMMMMMMMMMMMMMMMMh",
"MMMMMMMMMMMMMMMMMMMMMMMMM976%%%%%%%%%%%MMMMMMMMMMMMMM$$$$$$$$$$$$99999999999999999999999999999999999976MMMMMMMMMMMMMMMMMMMMMMMMMh",
"MMMMMMMMMMMMMMMMMMMMMMMMM76%%%%%%%%%%%%MMMMMMMMMMMMMM$$$$$$$$$$$$99999999999999999999999999999999999976MMMMMMMMMMMMMMMMMMMMMMMMMh",
"MMMMMMMMMMMMMMMMMMMMMMMMMMMMMMMMMMMMMMMMMMMMMMMMMMMMMMMMMMMMMMMMM9N999999999966666666666699999999999976MMMMMMMMMMMMMMMMMMMMMMMMMh",
"MMMMMMMMMMMMMMMMMMMMMMMMMMMMMMMMMMMMMMMMMMMMMMMMMMMMMMMMMMMMMMMMM9N9999999999666666666666N9999999999976MMMMMMMMMMMMMMMMMMMMMMMMMh",
"MMMMMMMMMMMMMMMMMMMMMMMMMMMMMMMMMMMMMMMMMMMMMMMMMMMMMMMMMMMMMMMMMNB9999999999666666666666BN999999999976MMMMMMMMMMMMMMMMMMMMMMMMMh",
"MMMMMMMMMMMMMMMMMMMMMMMMMMMMMMMMMMMMMMMMMMMMMMMMMMMMMMMMMMMMMMMMMNBBNNNNNNN99666666666666VBNNNNNNNNNN76MMMMMMMMMMMMMMMMMMMMMMMMMh",
"MMMMMMMMMMMMMMMMMMMMMMMMMMMMMMMMMMMMMMMMMMMMMMMMMMMMMMMMMMMMMMMMM996666666666MMMMMMMMMMMM766666666666%%MMMMMMMMMMMMMMMMMMMMMMMMMh",
"MMMMMMMMMMMMMMMMMMMMMMMMMMMMMMMMMMMMMMMMMMMMMMMMMMMMMMMMMMMMMMMMM976666666666MMMMMMMMMMMM666666666666%%MMMMMMMMMMMMMMMMMMMMMMMMMh"
};
